<?xml version="1.0" encoding="UTF-8" standalone="no"?>
<!-- Created with Inkscape (http://www.inkscape.org/) -->

<svg
   xmlns:dc="http://purl.org/dc/elements/1.1/"
   xmlns:cc="http://creativecommons.org/ns#"
   xmlns:rdf="http://www.w3.org/1999/02/22-rdf-syntax-ns#"
   xmlns:svg="http://www.w3.org/2000/svg"
   xmlns="http://www.w3.org/2000/svg"
   xmlns:sodipodi="http://sodipodi.sourceforge.net/DTD/sodipodi-0.dtd"
   xmlns:inkscape="http://www.inkscape.org/namespaces/inkscape"
   width="210mm"
   height="297mm"
   viewBox="0 0 210 297"
   version="1.1"
   id="svg8"
   inkscape:version="0.92.4 5da689c313, 2019-01-14"
   sodipodi:docname="crysteo_sumo.svg">
  <defs
     id="defs2">
    <clipPath
       id="clipPath20"
       clipPathUnits="userSpaceOnUse">
      <path
         inkscape:connector-curvature="0"
         id="path18"
         d="M 0,255.12 H 255.12 V 0 H 0 Z" />
    </clipPath>
  </defs>
  <sodipodi:namedview
     id="base"
     pagecolor="#ffffff"
     bordercolor="#666666"
     borderopacity="1.0"
     inkscape:pageopacity="0.0"
     inkscape:pageshadow="2"
     inkscape:zoom="2.8"
     inkscape:cx="407.93"
     inkscape:cy="924.26732"
     inkscape:document-units="mm"
     inkscape:current-layer="layer1"
     showgrid="false"
     inkscape:window-width="1870"
     inkscape:window-height="1051"
     inkscape:window-x="50"
     inkscape:window-y="0"
     inkscape:window-maximized="1" />
  <metadata
     id="metadata5">
    <rdf:RDF>
      <cc:Work
         rdf:about="">
        <dc:format>image/svg+xml</dc:format>
        <dc:type
           rdf:resource="http://purl.org/dc/dcmitype/StillImage" />
        <dc:title></dc:title>
      </cc:Work>
    </rdf:RDF>
  </metadata>
  <g
     inkscape:label="Calque 1"
     inkscape:groupmode="layer"
     id="layer1">
    <g
       transform="matrix(0.25791285,0,0,-0.25791285,71.043846,91.151994)"
       inkscape:label="logocrysteo"
       id="g10">
      <g
         id="g1098">
        <g
           inkscape:export-ydpi="2502.9282"
           inkscape:export-xdpi="2502.9282"
           id="g1184">
          <g
             id="g1114" />
          <g
             id="g4616">
            <path
               inkscape:connector-curvature="0"
               id="path24"
               style="fill:#000000;fill-opacity:1;fill-rule:nonzero;stroke:none"
               d="m 149.31874,134.74677 c 0,0 -1.006,-0.829 -2.89,-2.381 -1.912,-1.518 -4.687,-3.78 -8.346,-6.518 -1.837,-1.359 -3.869,-2.873 -6.13,-4.469 -1.135,-0.791 -2.321,-1.61 -3.575,-2.429 -1.233,-0.854 -2.552,-1.677 -3.907,-2.548 -5.474,-3.376 -11.893,-6.99 -19.658,-9.572 -3.889,-1.244 -8.095,-2.31 -12.715,-2.568 -2.299,-0.165 -4.704,-0.108 -7.187,0.267 -2.473,0.373 -5.056,1.04 -7.546,2.311 -0.616,0.333 -1.246,0.635 -1.833,1.058 -0.597,0.404 -1.179,0.765 -1.816,1.338 l -0.922,0.806 c -0.174,0.151 -0.259,0.246 -0.356,0.348 l -0.293,0.309 -0.589,0.62 c 0.118,-0.135 -0.242,0.267 -0.237,0.269 l -0.085,0.111 -0.169,0.221 -0.337,0.445 c -1.795,2.387 -2.951,5.225 -3.51,8.044 -1.085,5.698 -0.122,11.175 1.453,16.207 0.817,2.518 1.806,4.957 2.907,7.34 1.131,2.362 2.369,4.676 3.724,6.916 2.703,4.485 5.782,8.747 9.128,12.808 1.695,2.012 3.422,4.003 5.243,5.912 1.827,1.903 3.706,3.76 5.643,5.556 1.942,1.791 3.952,3.509 5.983,5.195 1.016,0.845 2.073,1.666 3.105,2.498 l 3.104,2.369 c 8.524,6.292 17.407,11.842 26.58,16.599 4.601,2.342 9.264,4.48 14.02,6.306 2.377,0.92 4.791,1.713 7.218,2.463 2.441,0.705 4.917,1.269 7.427,1.708 2.515,0.412 5.077,0.629 7.673,0.557 2.589,-0.084 5.239,-0.438 7.804,-1.355 0.637,-0.246 1.284,-0.455 1.897,-0.784 0.621,-0.304 1.247,-0.594 1.829,-0.989 l 0.887,-0.56 c 0.296,-0.195 0.603,-0.462 0.902,-0.695 l 0.892,-0.737 0.616,-0.609 c 1.998,-2.02 3.433,-4.524 4.248,-7.094 0.83,-2.572 1.084,-5.171 1.042,-7.632 -0.05,-2.47 -0.393,-4.825 -0.948,-7.042 -1.035,-4.47 -2.812,-8.412 -4.717,-12.008 -3.905,-7.165 -8.631,-12.813 -12.961,-17.56 -4.4,-4.701 -8.437,-8.526 -11.801,-11.617 -3.364,-3.089 -6.095,-5.403 -7.938,-7.011 -1.863,-1.566 -2.859,-2.403 -2.859,-2.403 m -0.518,0.619 c 0,0 0.984,0.842 2.833,2.425 1.803,1.617 4.437,4.02 7.518,7.34 3.078,3.315 6.562,7.59 10.05,12.791 1.735,2.605 3.479,5.432 5.142,8.48 1.704,3.021 3.274,6.297 4.72,9.727 1.423,3.432 2.726,7.061 3.505,10.801 0.397,1.869 0.676,3.763 0.712,5.629 0.056,1.866 -0.106,3.703 -0.566,5.406 -0.462,1.699 -1.238,3.269 -2.357,4.607 l -0.556,0.649 -0.416,0.388 c -0.145,0.132 -0.251,0.272 -0.425,0.412 l -0.544,0.421 c -0.347,0.304 -0.76,0.537 -1.163,0.791 -0.387,0.274 -0.845,0.461 -1.28,0.687 -3.575,1.72 -8.14,2.275 -12.771,2.095 -4.657,-0.222 -9.456,-1.139 -14.163,-2.595 -4.718,-1.442 -9.339,-3.45 -13.829,-5.779 -8.965,-4.69 -17.358,-10.872 -24.846,-17.803 l -2.831,-2.674 c -0.902,-0.899 -1.812,-1.772 -2.702,-2.686 -1.785,-1.827 -3.534,-3.679 -5.214,-5.58 -1.711,-1.871 -3.355,-3.791 -4.94,-5.741 -1.607,-1.931 -3.149,-3.897 -4.635,-5.887 -2.939,-3.997 -5.667,-8.083 -7.944,-12.294 -1.151,-2.1 -2.158,-4.236 -3.102,-6.361 -0.897,-2.139 -1.679,-4.284 -2.293,-6.42 -1.17,-4.259 -1.697,-8.536 -0.978,-12.086 0.346,-1.772 1.006,-3.315 1.946,-4.604 l 0.172,-0.246 0.085,-0.124 0.042,-0.062 c 0.044,-0.058 -0.261,0.298 -0.097,0.109 l 0.574,-0.633 0.287,-0.316 c 0.096,-0.107 0.199,-0.225 0.249,-0.249 0.126,-0.097 0.247,-0.197 0.365,-0.302 0.188,-0.206 0.564,-0.445 0.89,-0.68 0.312,-0.257 0.701,-0.433 1.057,-0.645 2.952,-1.611 6.762,-2.209 10.534,-2.172 3.784,-0.008 7.591,0.537 11.227,1.25 3.642,0.734 7.155,1.649 10.448,2.733 3.305,1.054 6.413,2.222 9.295,3.438 2.876,1.229 5.537,2.484 7.936,3.766 1.211,0.622 2.344,1.271 3.445,1.865 1.072,0.641 2.095,1.252 3.065,1.833 3.841,2.397 6.702,4.524 8.638,5.986 1.903,1.507 2.917,2.31 2.917,2.31" />
            <path
               inkscape:connector-curvature="0"
               id="path28"
               style="fill:#000000;fill-opacity:0;fill-rule:nonzero;stroke:#000000;stroke-opacity:1"
               d="m 133.02244,153.60317 c 5.768,-1.832 12.023,1.372 13.844,7.125 1.846,5.832 -1.223,12.072 -7.216,13.928 -6.146,1.902 -11.983,-1.562 -13.82,-7.178 -1.889,-5.775 1.392,-12.033 7.192,-13.875 m 19.974,5.977 c -0.618,-0.812 -0.721,-1.842 -1.181,-2.734 -3.066,-5.946 -7.894,-9.201 -14.572,-9.688 -1.543,-0.112 -3.065,0.06 -4.569,0.409 -0.137,0.032 -0.265,0.044 -0.384,-0.047 -0.621,0.197 -1.241,0.393 -1.862,0.589 -0.947,0.659 -2.063,0.991 -3.031,1.626 -3.711,2.434 -6.131,5.772 -7.306,10.051 -1.039,3.783 -0.676,7.472 0.825,11.019 1.379,3.259 3.634,5.821 6.692,7.696 3.209,1.969 6.676,2.72 10.379,2.457 1.532,-0.108 3.04,-0.462 4.494,-0.992 0.777,-0.376 1.578,-0.708 2.326,-1.133 6.047,-3.439 9.346,-10.163 8.433,-17.05 -0.096,-0.729 -0.472,-1.437 -0.244,-2.203" />
            <path
               inkscape:connector-curvature="0"
               id="path32"
               style="fill:none;fill-opacity:1;fill-rule:nonzero;stroke:#000000;stroke-opacity:1"
               d="m 171.75584,155.15997 c -2.259,3.006 -4.691,5.874 -7.068,8.785 -0.489,0.599 -0.835,1.345 -1.6,1.685 0.078,0.352 -0.217,0.526 -0.386,0.739 -0.693,0.872 -1.411,1.724 -2.12,2.583 -1.209,1.423 -2.428,2.838 -3.624,4.272 -3.699,4.433 -1.251,11.175 4.432,12.137 2.914,0.493 5.332,-0.476 7.179,-2.789 1.232,-1.543 2.384,-3.15 3.738,-4.594 0.691,-1.131 1.572,-2.113 2.443,-3.102 2.379,-3.165 4.965,-6.163 7.45,-9.241 0.315,-0.39 0.559,-0.864 1.03,-1.117 0.642,-1.052 1.409,-2 2.355,-2.796 0.029,-0.325 0.268,-0.522 0.458,-0.746 1.082,-1.28 2.175,-2.552 3.251,-3.837 3.082,-3.68 1.923,-9.334 -2.351,-11.488 -3.239,-1.633 -7.26,-0.602 -9.466,2.381 -1.075,1.454 -2.177,2.891 -3.418,4.212 -0.663,1.055 -1.481,1.987 -2.303,2.916" />
            <path
               inkscape:connector-curvature="0"
               id="path36"
               style="fill:#ffffff;fill-opacity:1;fill-rule:nonzero;stroke:#000000;stroke-opacity:1"
               d="m 174.74994,174.87607 c -0.871,0.989 -1.752,1.971 -2.443,3.103 0.215,3.6 -2.423,7.906 -6.689,9.224 -4.617,1.425 -9.726,-0.811 -11.726,-5.451 -1.831,-4.249 -0.06,-9.591 3.919,-11.885 0.845,-0.487 1.715,-1.015 2.771,-0.916 0.709,-0.859 1.427,-1.71 2.12,-2.582 0.169,-0.213 0.464,-0.387 0.386,-0.739 -0.403,0.027 -0.835,-0.031 -1.204,0.096 -1.255,0.434 -2.047,-0.272 -2.902,-1.003 -1.391,-1.188 -2.702,-2.476 -4.235,-3.492 -0.127,0.141 -0.081,0.297 -0.05,0.458 0.945,5.048 -0.202,9.587 -3.309,13.654 -1.763,2.308 -4.069,3.915 -6.645,5.176 0.145,0.275 0.427,0.309 0.683,0.386 1.685,0.507 3.358,1.06 5.062,1.497 0.712,0.182 1.094,0.582 1.391,1.181 2.361,4.763 7.454,7.399 12.785,6.623 6.82,-0.994 11.462,-7.3 10.409,-14.155 -0.062,-0.399 -0.213,-0.784 -0.323,-1.175" />
            <path
               inkscape:connector-curvature="0"
               id="path40"
               style="fill:none;fill-opacity:1;fill-rule:nonzero;stroke:#000000;stroke-opacity:1"
               d="m 171.75584,155.15997 c 0.822,-0.929 1.64,-1.861 2.303,-2.916 -0.082,-1.414 0.268,-2.756 0.865,-4.003 2.579,-5.389 9.03,-7.144 13.935,-3.973 4.034,2.609 5.543,7.981 3.35,12.283 -1.397,2.742 -3.676,4.395 -6.624,5.171 -0.946,0.796 -1.713,1.744 -2.355,2.796 3.275,0.236 6.134,-0.827 8.559,-2.957 3,-2.634 4.436,-6 4.256,-10.013 -0.026,-0.59 -0.146,-1.175 -0.222,-1.763 -0.263,-0.831 -0.526,-1.663 -0.789,-2.495 -1.993,-4.993 -8.048,-8.246 -13.294,-7.237 -4.849,0.933 -8.067,3.738 -9.724,8.32 -0.796,2.201 -0.857,4.498 -0.26,6.787" />
            <path
               inkscape:connector-curvature="0"
               id="path44"
               style="fill:#000000;fill-opacity:1;fill-rule:nonzero;stroke:#000000;stroke-opacity:1"
               d="m 144.74254,180.51947 c 2.576,-1.262 4.882,-2.868 6.645,-5.177 3.107,-4.067 4.255,-8.606 3.309,-13.653 -0.03,-0.162 -0.077,-0.318 0.05,-0.459 -0.447,-0.694 -1.198,-1.067 -1.75,-1.65 -0.228,0.766 0.147,1.474 0.244,2.203 0.913,6.886 -2.386,13.611 -8.433,17.05 -0.748,0.425 -1.549,0.757 -2.326,1.132 0.739,0.242 1.437,0.654 2.261,0.554" />
            <path
               inkscape:connector-curvature="0"
               id="path48"
               style="fill:none;fill-opacity:1;fill-rule:nonzero;stroke:#000000;stroke-opacity:1"
               d="m 133.02244,153.60317 c -5.8,1.842 -9.081,8.1 -7.192,13.875 1.837,5.616 7.674,9.08 13.82,7.178 5.993,-1.856 9.062,-8.096 7.216,-13.928 -1.821,-5.753 -8.076,-8.957 -13.844,-7.125" />
            <path
               inkscape:connector-curvature="0"
               id="path52"
               style="fill:none;fill-opacity:1;fill-rule:nonzero;stroke:#000000;stroke-opacity:1"
               d="m 185.58524,161.72167 c 2.948,-0.776 5.226,-2.429 6.624,-5.171 2.193,-4.301 0.683,-9.674 -3.351,-12.282 -4.904,-3.171 -11.355,-1.417 -13.934,3.973 -0.597,1.247 -0.947,2.588 -0.866,4.002 1.242,-1.321 2.343,-2.758 3.419,-4.211 2.206,-2.983 6.227,-4.015 9.466,-2.382 4.274,2.155 5.433,7.809 2.351,11.488 -1.077,1.285 -2.169,2.557 -3.252,3.837 -0.189,0.224 -0.429,0.422 -0.457,0.746" />
            <path
               inkscape:connector-curvature="0"
               id="path56"
               style="fill:none;fill-opacity:1;fill-rule:nonzero;stroke:#000000;stroke-opacity:1"
               d="m 160.58164,168.95147 c -1.056,-0.099 -1.926,0.428 -2.771,0.916 -3.978,2.294 -5.749,7.636 -3.919,11.884 2,4.641 7.109,6.877 11.726,5.451 4.266,-1.317 6.904,-5.623 6.69,-9.224 -1.355,1.443 -2.507,3.051 -3.739,4.594 -1.847,2.312 -4.265,3.282 -7.179,2.788 -5.683,-0.962 -8.131,-7.704 -4.432,-12.137 1.197,-1.433 2.415,-2.848 3.624,-4.272" />
            <path
               inkscape:connector-curvature="0"
               id="path60"
               style="fill:#000000;fill-opacity:1;fill-rule:nonzero;stroke:none"
               d="m 89.882839,139.51467 c 0.408,-0.522 2.715,-1.302 3.208,-1.127 0.255,0.09 0.522,0.206 0.574,0.54 0.065,0.422 -0.292,0.408 -0.525,0.506 -1.037,0.434 -2.092,0.393 -3.257,0.081 m 4.365,-10.479 c 0.662,0.335 1.114,0.569 1.57,0.794 1.732,0.852 1.392,0.971 2.268,-0.704 0.129,-0.248 0.244,-0.509 0.409,-0.733 0.159,-0.215 0.409,-0.294 0.647,-0.125 0.216,0.154 0.131,0.374 0.034,0.566 -0.933,1.845 -1.866,3.691 -2.806,5.533 -0.141,0.275 -0.378,0.442 -0.69,0.301 -0.323,-0.145 -0.186,-0.408 -0.081,-0.625 0.124,-0.256 0.004,-0.459 -0.069,-0.696 -0.416,-1.345 -0.806,-2.698 -1.282,-4.311 m -9.482,3.958 c -0.513,1.394 -0.207,2.623 0.485,3.927 0.675,1.27 1.673,2.162 2.797,2.87 0.899,0.567 1.946,0.885 3.123,0.902 2.225,0.03 4.02,-0.711 5.446,-2.365 0.381,-0.442 0.634,-1.001 0.91,-1.525 0.506,-0.96 1.021,-1.918 1.467,-2.907 0.481,-1.068 1.060001,-2.021 2.176001,-2.528 -0.543,-0.055 -0.872,-0.189 -0.493,-0.837 0.297,-0.508 0.526,-1.058 0.745,-1.614 0.636,-1.614 -0.084,-2.988 -0.651,-4.401 -0.416,-0.018 -0.553,-0.393 -0.791001,-0.63 -1.455,-1.447 -3.196,-2.332 -5.205,-2.726 -0.588,-0.115 -0.963,-0.023 -1.252,0.584 -0.885,1.863 -1.835,3.695 -2.759,5.539 0.534,0.266 1.068,0.534 1.603,0.799 0.377,0.187 0.755,0.351 0.879,0.831 0.322,1.254 0.676,2.499 1.004,3.751 0.059,0.225 0.173,0.508 -0.094,0.669 -0.202,0.122 -0.401,-0.052 -0.582,-0.143 -1.536,-0.775 -3.07,-1.556 -4.604,-2.335 -0.922,1.491 -1.517,3.04 -0.873,4.818 0.266,0.733 -0.337,0.909 -0.794,1.106 -0.504,0.217 -0.874,0.012 -1.063,-0.519 -0.534,-1.499 -0.645,-2.997 0.087,-4.459 1.584,-3.166 3.199,-6.317 4.781,-9.485 0.116,-0.234 0.512,-0.475 0.176,-0.808 -0.643,-0.638 -0.062,-0.715 0.379,-0.834 0.925,-0.251 1.876,-0.123 2.816,-0.17 -0.151,-0.14 -0.308,-0.275 -0.301,-0.507 -0.787,0.047 -1.855,0.438 -2.304,0.072 -1.039,-0.849 -0.955,0.102 -1.25,0.523 0.15,0.392 -0.127,0.67 -0.278,0.97 -1.442,2.85 -2.887,5.699 -4.35,8.538 -0.286,0.554 -0.447,1.188 -0.948,1.618 -0.066,0.128 -0.132,0.256 -0.198,0.383 0.014,0.074 0.027,0.147 0.04,0.22 l 0.004,0.017 c 0.134,0.253 -0.018,0.45 -0.128,0.656" />
            <path
               inkscape:connector-curvature="0"
               id="path64"
               style="fill:#000000;fill-opacity:1;fill-rule:nonzero;stroke:#faffff;stroke-opacity:1"
               d="m 100.50174,120.92267 c 0.472,-1.21 1.446,-1.694 2.654,-1.895 1.605,-0.266 2.594,-1.19 3.331,-2.688 3.064,-6.226 6.245,-12.395 9.384,-18.585 0.104,-0.208 0.209,-0.417 0.314,-0.626 0.13,-0.411 0.63,-0.731 0.352,-1.24 -0.214,-0.392 -0.459,-0.811 -0.964,-0.858 -0.594,-0.056 -0.849,0.378 -1.07,0.842 -3.079,6.466 -6.395,12.813 -9.564,19.233 -0.63,1.276 -1.515,1.996 -2.845,2.184 -1.688,0.239 -2.73,1.146 -3.172,2.775 0.527,0.286 1.053,0.572 1.58,0.858" />
            <path
               inkscape:connector-curvature="0"
               id="path68"
               style="fill:#000000;fill-opacity:1;fill-rule:nonzero;stroke:#faffff;stroke-opacity:1"
               d="m 96.965339,119.25367 c 0.444,-0.183 0.537,-0.628 0.722,-0.993 3.585001,-7.072 7.164001,-14.146 10.740001,-21.222 0.125,-0.247 0.232,-0.511 0.3,-0.778 0.128,-0.504 -0.034,-0.903 -0.527,-1.117 -0.466,-0.203 -0.869,-0.145 -1.213,0.285 -0.6,0.751 -0.93,1.646 -1.349,2.489 -3.466,6.97 -6.913001,13.949 -10.365001,20.925 0.588,0.035 1.188,0.025 1.692,0.411" />
            <path
               inkscape:connector-curvature="0"
               id="path72"
               style="fill:#000000;fill-opacity:1;fill-rule:nonzero;stroke:none"
               d="m 96.965339,119.25367 c -0.504,-0.386 -1.104,-0.376 -1.692,-0.411 -0.232,-0.007 -0.464,-0.014 -0.695,-0.021 -0.24,0.356 -0.485,0.709 -0.4,1.175 -0.008,0.232 0.15,0.367 0.3,0.506 l 0.018,-0.018 c 0.078,-0.097 0.169,-0.286 0.231,-0.277 0.248,0.038 0.144,0.236 0.119,0.389 2.151,0.457 4.046,1.399 5.579001,2.999 0.229,0.239 0.721,0.432 0.345,0.92 0.568,1.413 1.288,2.787 0.651,4.401 -0.219,0.556 -0.447,1.106 -0.744,1.614 -0.38,0.648 -0.051,0.782 0.493,0.837 l 0.035,-0.041 c 0.063,-0.11 0.125,-0.219 0.188,-0.328 1.345,-1.032 1.988,-2.447 2.08,-4.091 0.123,-2.193 -1.026,-3.815 -2.523,-5.26 -0.197,-0.189 -0.615,-0.293 -0.449,-0.725 -0.526001,-0.286 -1.053001,-0.572 -1.580001,-0.858 -0.733,-0.074 -1.318,-0.505 -1.956,-0.811" />
            <path
               inkscape:connector-curvature="0"
               id="path76"
               style="fill:#000000;fill-opacity:1;fill-rule:nonzero;stroke:none"
               d="m 94.178239,119.99617 c -0.085,-0.466 0.16,-0.819 0.4,-1.174 -0.985,-0.338 -1.989,0.063 -2.995,-0.07 -0.427,-0.057 -0.575,0.642 -0.83,0.998 -0.452,0.628 -1.072,1.229 -0.849,2.14 0.24,-0.433 0.48,-0.866 0.719,-1.299 0.296,-0.421 0.212,-1.372 1.251,-0.523 0.449,0.367 1.517,-0.025 2.304,-0.072" />
            <path
               inkscape:connector-curvature="0"
               id="path80"
               style="fill:#040000;fill-opacity:1;fill-rule:nonzero;stroke:none"
               d="m 90.623639,120.59127 c -0.24,0.433 -0.479,0.866 -0.719,1.298 -1.55,3.073 -3.099,6.146 -4.649,9.219 -0.069,0.203 -0.138,0.406 -0.208,0.61 0.502,-0.431 0.663,-1.065 0.948,-1.619 1.464,-2.839 2.908,-5.687 4.35,-8.537 0.152,-0.3 0.429,-0.579 0.278,-0.971" />
            <path
               inkscape:connector-curvature="0"
               id="path84"
               style="fill:#000000;fill-opacity:1;fill-rule:nonzero;stroke:none"
               d="m 85.033964,132.21452 c -0.082,0.176 -0.102125,-0.28985 -0.184125,-0.11385 0.029,0.052 -0.216531,1.14701 -0.166531,1.18001 0.11,-0.206 0.591125,-0.73699 0.456125,-0.98999"
               sodipodi:nodetypes="cccc" />
            <path
               inkscape:connector-curvature="0"
               id="path88"
               style="fill:#e02b39;fill-opacity:1;fill-rule:nonzero;stroke:none"
               d="m 101.39334,130.99817 c -0.063,0.109 -0.125,0.219 -0.188,0.328 0.174,-0.046 0.205,-0.173 0.188,-0.328" />
            <path
               inkscape:connector-curvature="0"
               id="path96"
               style="fill:#000000;fill-opacity:1;fill-rule:nonzero;stroke:#faffff;stroke-opacity:1"
               d="m 90.763439,127.28257 c -0.598,1.191 -1.196,2.381 -1.794,3.572 1.535,0.779 3.068,1.56 4.605,2.335 0.181,0.091 0.379,0.265 0.581,0.143 0.267,-0.161 0.154,-0.444 0.095,-0.669 -0.328,-1.252 -0.683,-2.497 -1.005,-3.751 -0.123,-0.48 -1.001734,-0.77065 -1.379734,-0.95765 -0.535,-0.265 -1.069,-0.533 -1.603,-0.799"
               sodipodi:nodetypes="cccccccc" />
            <path
               inkscape:connector-curvature="0"
               id="path100"
               style="fill:#000000;fill-opacity:1;fill-rule:nonzero;stroke:#faffff;stroke-opacity:1"
               d="m 94.248139,129.03567 c 0.476,1.613 0.866,2.966 1.282,4.311 0.073,0.237 0.192,0.44 0.069,0.696 -0.106,0.217 -0.243,0.48 0.08,0.625 0.313,0.141 0.55,-0.026 0.691,-0.302 0.94,-1.841 1.873,-3.687 2.805,-5.532 0.097,-0.192 0.183,-0.412 -0.034,-0.566 -0.237,-0.169 -0.487,-0.09 -0.647,0.125 -0.164,0.224 -0.279,0.485 -0.409,0.733 -0.875,1.675 -0.535,1.556 -2.267,0.704 -0.456,-0.225 -0.908,-0.459 -1.57,-0.794"
               sodipodi:nodetypes="ccccccccccc" />
            <path
               inkscape:connector-curvature="0"
               id="path108"
               style="fill:#bb2024;fill-opacity:1;fill-rule:nonzero;stroke:none"
               d="m 84.850339,132.10107 c 0.013,0.073 0.026,0.147 0.039,0.22 -0.013,-0.074 -0.026,-0.147 -0.039,-0.22" />
            <path
               inkscape:connector-curvature="0"
               id="path112"
               style="fill:#000000;fill-opacity:1;fill-rule:nonzero;stroke:none"
               d="m 94.496639,120.48487 c 0.116,0.037 0.233,0.074 0.349,0.112 0.026,-0.154 0.13,-0.351 -0.119,-0.389 -0.061,-0.009 -0.152,0.179 -0.23,0.277" />
            <g
               id="g1108">
              <g
                 id="g1143"
                 style="stroke:#fbffff;stroke-opacity:1">
                <path
                   inkscape:connector-curvature="0"
                   id="path136"
                   style="fill:#131110;fill-opacity:1;fill-rule:nonzero;stroke:none;stroke-opacity:1"
                   d="m 183.66134,123.29637 c -1.036,-0.168 -0.989,0.52 -0.987,1.216 0.007,4.986 -0.006,9.971 0.02,14.957 0.002,0.484 -0.347,1.236 0.639,1.311 0.859,0.065 0.823,-0.595 0.99,-1.123 1.139,-3.611 2.286,-7.22 3.43,-10.829 1.25,0.254 0.62,1.246 0.661,1.883 0.215,3.346 -0.292,6.714 0.292,10.052 1.036,0.167 0.989,-0.519 0.988,-1.215 -0.008,-4.985 0.006,-9.97 -0.02,-14.955 -0.002,-0.485 0.346,-1.236 -0.636,-1.314 -0.857,-0.068 -0.825,0.591 -0.992,1.12 -1.141,3.611 -2.291,7.219 -3.437,10.828 -1.357,0.296 -0.623,-0.791 -0.644,-1.142 -0.215,-3.592 0.277,-7.204 -0.304,-10.789" />
                <path
                   inkscape:connector-curvature="0"
                   id="path140"
                   style="fill:#100f0d;fill-opacity:1;fill-rule:nonzero;stroke:none;stroke-opacity:1"
                   d="m 175.15594,132.02477 c 0,1.991 -0.06,3.985 0.027,5.973 0.039,0.918 -0.586,2.336 0.468,2.661 1.285,0.396 2.789,0.116 4.196,0.068 0.381,-0.013 0.431,-0.411 0.419,-0.761 -0.025,-0.736 -0.576,-0.6 -1.044,-0.699 -0.835,-0.177 -2.247,0.567 -2.421,-0.457 -0.315,-1.846 -0.262,-3.823 0.049,-5.676 0.132,-0.789 1.469,-0.244 2.252,-0.338 0.596,-0.071 1.191,0.01 1.102,-0.885 -0.074,-0.75 -0.657,-0.709 -1.089,-0.611 -2.628,0.596 -2.537,-1.067 -2.439,-2.82 0.105,-1.873 -0.812,-4.456 2.784,-3.718 0.427,0.087 0.774,-0.109 0.811,-0.657 0.046,-0.692 -0.342,-0.829 -0.906,-0.825 -0.913,0.007 -1.834,0.079 -2.736,-0.019 -1.245,-0.134 -1.536,0.388 -1.497,1.546 0.08,2.404 0.024,4.812 0.024,7.218" />
                <path
                   inkscape:connector-curvature="0"
                   id="path144"
                   style="fill:#11100e;fill-opacity:1;fill-rule:nonzero;stroke:none;stroke-opacity:1"
                   d="m 171.66994,138.50237 c -1.834,1.051 -3.508,1.311 -4.578,-0.682 -1.033,-1.923 0.039,-3.32 1.523,-4.469 0.917,-0.71 1.964,-1.276 2.794,-2.072 1.653,-1.584 1.82,-4.316 0.41,-6.134 -1.306,-1.683 -2.948,-2.257 -5.062,-1.469 -1.048,0.391 -1.212,0.975 -0.942,2.066 1.695,-0.901 3.501,-1.834 4.875,0.287 1.052,1.626 0.648,3.206 -0.772,4.448 -0.28719,0.25122 -0.5915,0.48267 -0.90239,0.70652 -0.70019,0.50414 -1.4338,0.9697 -2.08061,1.53548 -1.793,1.568 -2.235,3.83 -1.162,5.854 0.761,1.434 2.063,2.306 3.649,2.129 0.924,-0.104 2.569,0.042 2.248,-2.2"
                   sodipodi:nodetypes="cccccccccscccc" />
                <path
                   inkscape:connector-curvature="0"
                   id="path148"
                   style="fill:#100f0d;fill-opacity:1;fill-rule:nonzero;stroke:none;stroke-opacity:1"
                   d="m 163.18414,131.79887 c 0,-2.323 0.029,-4.647 -0.021,-6.97 -0.012,-0.547 0.437,-1.436 -0.661,-1.532 -1.138,-0.099 -0.833,0.789 -0.835,1.372 -0.019,4.895 -0.022,9.791 0.003,14.686 0.003,0.565 -0.361,1.471 0.796,1.412 1.122,-0.057 0.688,-0.952 0.698,-1.5 0.046,-2.489 0.02,-4.979 0.02,-7.468" />
                <g
                   id="g1124"
                   style="stroke:#fbffff;stroke-opacity:1">
                  <path
                     d="m 79.231739,144.72077 c -4.309,-0.013 -8.019,2.904 -9.012,7.088 -0.973,4.096 1.18,8.502 5.051,10.339 3.954,1.877 8.405,0.774 11.064,-2.825 0.534,-0.723 1.708,-1.736 0.752,-2.511 -0.999,-0.811 -2.46,-1.892 -3.782,0.056 -0.913,1.344 -2.327,2.049 -4.058,2.019 -2.425,-0.042 -4.406,-1.428 -5.043,-3.636 -0.685,-2.37 0.253,-4.745 2.349,-5.952 2.008,-1.156 4.445,-0.862 6.16,0.774 0.419,0.4 0.73,0.915 1.154,1.308 1.161,1.073 2.276,0.107 3.195,-0.347 1.163,-0.573 0.1,-1.448 -0.245,-2.032 -1.692,-2.858 -4.195,-4.381 -7.585,-4.281"
                     style="fill:#100f0d;fill-opacity:1;fill-rule:nonzero;stroke:#fbffff;stroke-opacity:1"
                     id="path116"
                     inkscape:connector-curvature="0" />
                  <path
                     d="m 120.76004,140.94277 c -0.333,-0.213 -0.685,-0.634 -0.996,-0.605 -1.664,0.152 -2.255,-0.599 -2.12,-2.176 0.038,-0.446 -0.318,-0.733 -0.754,-0.86 1.063,2.138 0.062,4.398 0.354,6.598 0.128,0.967 -0.895,0.362 -1.334,0.346 -2.341,-0.088 -4.645,-0.108 -6.756,1.15 -1.208,0.72 -1.928,1.63 -2.084,3.14 -0.256,2.485 -0.461,4.962 -0.388,7.459 0.035,1.155 -0.456,2.44 1.695,2.378 1.8,-0.052 2.289,-0.59 2.139,-2.28 -0.138,-1.568 -0.046,-3.158 -0.025,-4.738 0.034,-2.7 0.885,-3.613 3.281,-3.569 2.448,0.045 3.379,0.997 3.403,3.513 0.016,1.663 0.118,3.336 -0.021,4.987 -0.156,1.855 0.702,2.14 2.332,2.225 1.864,0.097 1.807,-0.914 1.693,-2.123 -0.485,-5.14 -0.539,-10.29 -0.419,-15.445"
                     style="fill:#12110f;fill-opacity:1;fill-rule:nonzero;stroke:#fbffff;stroke-opacity:1"
                     id="path120"
                     inkscape:connector-curvature="0" />
                  <path
                     d="m 142.55954,155.82887 c 0,1.417 -0.018,2.834 0.006,4.25 0.018,1.071 -0.464,2.349 1.562,2.261 1.503,-0.066 2.384,-0.258 2.079,-1.998 -0.248,-1.422 0.556,-1.637 1.748,-1.581 1.663,0.077 3.337,-0.052 4.998,0.041 1.372,0.077 2.07,-0.095 2.09,-1.811 0.022,-1.856 -0.931,-1.765 -2.169,-1.721 -1.248,0.044 -2.539,0.2 -3.737,-0.05 -0.987,-0.205 -2.646,1.17 -2.941,-1.035 -0.358,-2.663 0.782,-5.164 2.766,-5.815 1.646,-0.539 3.019,-0.118 3.602,1.64 0.373,1.123 1.275,1.514 2.183,1.724 1.458,0.338 2.215,-0.242 1.864,-1.895 -0.659,-3.108 -3.945,-5.717 -7.084,-5.555 -3.754,0.193 -6.703,2.957 -6.887,6.547 -0.086,1.662 -0.015,3.332 -0.015,4.998 z"
                     style="fill:#100f0d;fill-opacity:1;fill-rule:nonzero;stroke:#fbffff;stroke-opacity:1"
                     id="path124"
                     inkscape:connector-curvature="0" />
                  <path
                     d="m 128.86394,153.31217 c 2.698,0 4.964,-0.002 7.23,0.001 2.88,0.003 2.835,-0.16 2.719,-2.939 -0.18,-4.291 -5.967,-7.192 -9.191,-5.611 -0.725,0.356 -2.052,0.341 -1.713,1.586 0.269,0.989 0.885,1.972 2.234,1.984 1.399,0.013 2.929,-0.37 4.338,1.437 -2.819,0 -5.248,0.087 -7.668,-0.029 -1.8,-0.087 -2.321,0.672 -2.257,2.354 0.192,5.012 5.873,8.293 10.345,5.918 0.481,-0.255 1.23,-0.399 0.86,-1.208 -0.493,-1.08 -1.124,-2.028 -2.526,-2.036 -1.406,-0.007 -2.911,0.283 -4.371,-1.457"
                     style="fill:#100f0d;fill-opacity:1;fill-rule:nonzero;stroke:#fbffff;stroke-opacity:1"
                     id="path128"
                     inkscape:connector-curvature="0" />
                  <path
                     d="m 103.20474,151.77787 c -1.015,-0.104 -1.785,0.065 -2.175,1.512 -0.478,1.773 -2.064,2.286 -3.796,1.956 -1.713,-0.328 -2.435,-1.607 -2.525,-3.211 -0.094,-1.656 -0.094,-3.324 -0.003,-4.98 0.082,-1.486 0.034,-2.397 -1.986,-2.361 -1.866,0.032 -2.213,0.663 -2.058,2.288 0.234,2.45 -0.38,4.96 0.517,7.371 1.106,2.977 4.157,5.077 7.069,4.847 3.569,-0.281 5.921,-2.238 6.699,-5.574 0.434,-1.862 0.434,-1.862 -1.742,-1.848"
                     style="fill:#100f0d;fill-opacity:1;fill-rule:nonzero;stroke:#fbffff;stroke-opacity:1"
                     id="path132"
                     inkscape:connector-curvature="0" />
                  <path
                     d="m 114.37194,132.80497 c -0.428,-2.16 1.378,-3.494 1.353,-5.402 -0.008,-0.555 -0.369,-1.464 0.756,-1.451 1.046,0.012 0.823,0.86 0.829,1.462 0.026,2.813 0.011,5.627 0.011,8.672 -2.208,-0.301 -2.6,-1.52 -2.949,-3.281 m 6.388,8.138 c 3.452,-0.843 4.281,-1.867 4.305,-5.298 0.009,-1.303 -0.154,-2.572 0.88,-3.73 0.704,-0.789 0.223,-1.717 -0.665,-2.299 -0.766,-0.502 -1.523,-0.599 -2.24,0.078 -0.766,0.724 -1.035,1.71 -0.304,2.425 1.672,1.635 0.833,3.581 0.802,5.373 -0.017,1.018 -1.064,1.783 -2.124,1.742 -1.388,-0.054 -0.664,-1.268 -0.682,-1.914 -0.086,-2.993 -0.079,-5.991 -0.013,-8.986 0.02,-0.926 -0.601,-2.14 1.168,-2.511 0.927,-0.194 0.256,-1.116 -0.131,-1.595 -0.82,-1.013 -1.71,-1.969 -2.572,-2.948 h -0.5 c -0.806,1.007 -1.654,1.985 -2.405,3.032 -0.525,0.731 -1.101,1.007 -2.036,1.001 -2.118,-0.016 -3.394,1.731 -2.142,3.268 1.29,1.584 0.987,3.122 1.021,4.731 0.053,2.528 1.326,3.778 3.767,3.989 0.367,0.085 0.502,0.338 0.544,0.693 0.354,3.021 0.356,3.02 3.327,2.949"
                     style="fill:#110f0e;fill-opacity:1;fill-rule:nonzero;stroke:#fbffff;stroke-opacity:1"
                     id="path152"
                     inkscape:connector-curvature="0" />
                  <path
                     d="m 165.58954,153.83317 h 4.134 c -2.173,1.574 -2.349,1.566 -4.134,0 m -0.737,-4.054 c 1.166,-1.31 2.152,-1.539 3.244,-1.498 0.749,0.028 1.455,-0.023 2.146,-0.423 0.704,-0.407 1.234,-1.048 1.286,-1.718 0.066,-0.846 -0.888,-1.067 -1.545,-1.327 -2.811,-1.112 -6.103,-0.179 -8.019,2.231 -2.01,2.529 -2.221,5.956 -0.523,8.523 1.678,2.538 4.921,3.818 7.803,3.08 3.395,-0.87 5.585,-3.763 5.468,-7.036 -0.049,-1.37 -0.526,-1.909 -1.938,-1.857 -2.474,0.091 -4.954,0.025 -7.922,0.025"
                     style="fill:#100f0d;fill-opacity:1;fill-rule:nonzero;stroke:#fbffff;stroke-opacity:1"
                     id="path156"
                     inkscape:connector-curvature="0" />
                  <path
                     d="m 183.77754,155.28097 c -1.936,-0.001 -3.139,-1.278 -3.112,-3.328 0.026,-1.982 0.993,-3.105 3.018,-3.177 1.987,-0.07 3.5,1.404 3.497,3.359 -0.003,1.852 -1.404,3.147 -3.403,3.146 m 0.05,-10.501 c -4.044,0 -7.637,3.495 -7.542,7.337 0.094,3.862 3.57,7.194 7.47,7.162 4.049,-0.033 7.458,-3.425 7.429,-7.391 -0.03,-3.989 -3.258,-7.109 -7.357,-7.108"
                     style="fill:#100f0d;fill-opacity:1;fill-rule:nonzero;stroke:#fbffff;stroke-opacity:1"
                     id="path160"
                     inkscape:connector-curvature="0" />
                </g>
              </g>
            </g>
          </g>
        </g>
      </g>
    </g>
    <rect
       style="fill:none;fill-opacity:1;stroke:#000000;stroke-width:0.17637399;stroke-opacity:1"
       id="rect990"
       width="94.823624"
       height="44.823627"
       x="57.588188"
       y="34.809448" />
    <g
       id="g1030"
       transform="translate(1.5992915,73.384117)">
      <rect
         ry="1.282979"
         y="0.11142959"
         x="67.781914"
         height="3.0648942"
         width="9.8648939"
         id="rect1011"
         style="fill:none;fill-opacity:1;stroke:#000000;stroke-width:0.13510589;stroke-opacity:1" />
      <rect
         ry="1.2829791"
         y="0.067552947"
         x="129.3436"
         height="3.0648942"
         width="9.8648939"
         id="rect1011-6"
         style="fill:none;fill-opacity:1;stroke:#000000;stroke-width:0.13510589;stroke-opacity:1" />
    </g>
  </g>
</svg>
